<svg xmlns="http://www.w3.org/2000/svg" viewBox="0 0 582.26 625.36"><defs><style>.cls-1{fill:#231f20;}</style></defs><title>atb-face</title><g id="Layer_2" data-name="Layer 2"><g id="Layer_1-2" data-name="Layer 1"><path class="cls-1" d="M372,453.34c4.43-8.16,3-13.13,1-15.87-13-17.64-106-19.39-107-19.39-4.52,0-7.84-.08-11.36-.16-7.41-.17-15.06-.35-34.7.16-30,.77-50.51,18-51.37,18.73a4,4,0,0,0-1.08,4.55c9.87,23.16,22.54,38.79,39.87,49.19,15.73,9.44,35.71,14.59,62.85,16.21,1.42.08,2.85.12,4.31.12,17.72,0,38.08-6.24,57.87-17.81C350.33,478.55,365.88,464.53,372,453.34ZM220.11,426c19.44-.5,27-.32,34.31-.15,3.56.08,6.93.15,11.54.15,7,0,30,.91,52.81,3.59,39.11,4.59,46.46,10.8,47.78,12.6a1.59,1.59,0,0,1,.23.45c-10.72-2.47-42.6-8.8-96.37-11.16-46.87-2.06-75.52,2.75-88.65,5.88C189.87,432.58,203.51,426.4,220.11,426Zm121.71,36.49c-10.81-.25-70.4,0-70.4,0s-5.67-17.42,0-21.58,67.74,4.51,79.08,6S347.42,462.58,341.82,462.46Zm-80.43-.14s-56.09-.35-62.11,0c-4.49.26-12.9-13.37-12.12-16.34s59.65-7.55,71.51-6.92C269.2,439.61,261.39,462.32,261.39,462.32Zm9.25,36.56c-25.83-1.55-44.66-6.34-59.26-15.11-11.59-6.95-20.93-16.56-28.71-29.67,12,13.85,37.53,33,87.37,34.63,49.07,1.62,80.18-23.1,93.43-36.61C350.85,471.1,307.42,501.07,270.64,498.88Z"/><path class="cls-1" d="M247.29,330c-2.77,11.81-11.5,19.77-18.52,26.16-7.23,6.58-14.7,13.39-9.85,21.91,3.61,6.34,8.07,5.8,11.33,5.41,2.75-.33,5.59-.66,10.36,2.32a88.92,88.92,0,0,1,8.06,5.71c4.33,3.36,7.22,5.6,15,5.6h.52c10-.12,17.35-3,23.24-5.33,4.1-1.62,7.35-2.9,10-2.65a15.53,15.53,0,0,1,5,1.28c4.11,1.65,6.88,1.73,12.45-2.17,8-5.57,7.36-15.35,7-21.19-.07-1.05-.13-2-.13-2.79a3.95,3.95,0,1,0-7.89,0c0,1,.06,2.1.14,3.28.38,6.12.37,11.43-3.65,14.23-3,2.11-3.19,2-5,1.32a23,23,0,0,0-7.23-1.83c-4.53-.41-8.75,1.25-13.62,3.17-5.57,2.2-11.88,4.68-20.45,4.79-5.43.06-6.54-.79-10.61-3.95a95.69,95.69,0,0,0-8.72-6.17c-7.13-4.46-12.15-3.86-15.47-3.46-2.52.31-2.52.3-3.54-1.48-1.57-2.76,1.18-5.67,8.3-12.16,7.42-6.75,17.57-16,20.89-30.2s.23-55.07.1-56.8a4,4,0,1,0-7.88.62C247.23,276,250.36,316.84,247.29,330Z"/><path class="cls-1" d="M290.41,330.12a3.29,3.29,0,0,0,.54-.05,3,3,0,0,0,2.38-3.45c-3.52-19,7.19-50.06,7.29-50.38a3,3,0,0,0-5.59-1.95c-.46,1.34-11.33,32.86-7.53,53.4A3,3,0,0,0,290.41,330.12Z"/><path class="cls-1" d="M326,306.22c.41,0,42-3.41,75.5,0h.3a3,3,0,0,0,2.26-4.88,58.82,58.82,0,0,0-10.26-9,62.67,62.67,0,0,0-27-10.89c-9.79-1.4-20.4,1.63-30.69,8.73a69.36,69.36,0,0,0-12.6,11.13,3,3,0,0,0,2.51,4.85Zm67.49-6.62c-8.43-.57-17.09-.8-25.28-.82h0c1.89-3.71,1.44-8.4-.87-11.19h0A58.43,58.43,0,0,1,393.52,299.6Zm-47-8.61h0a13.82,13.82,0,0,0,1.07,8.14h0c-5.55.19-10.37.44-14.08.65A60.1,60.1,0,0,1,346.54,291Z"/><path class="cls-1" d="M131.8,275.27c40.76-9.63,109.45-1.48,109.45-1.48V258.55s-62.76-7-97.59,5.6S125.29,276.77,131.8,275.27Z"/><path class="cls-1" d="M396.41,261.93c-19.27-4-89.22-3.38-89.22-3.38v16.77c49.15-4.28,69.95-8.07,112.2,7.71C430.68,287.25,415.68,266,396.41,261.93Z"/><path class="cls-1" d="M225.28,309.49a3,3,0,0,0-3.93-1.45c-.36.17-36.66,16.48-76.43-2.38a3,3,0,0,0-2.53,5.36,100.49,100.49,0,0,0,43.35,9.77c21.8,0,37.11-6.91,38.1-7.37A3,3,0,0,0,225.28,309.49Z"/><path class="cls-1" d="M408.7,307a3,3,0,0,0-4-1.34c-33.7,16.67-76.69,3.7-77.12,3.57a3,3,0,0,0-1.75,5.66A140.83,140.83,0,0,0,364,320.2c13.64,0,29.15-2.15,43.41-9.21A3,3,0,0,0,408.7,307Z"/><path class="cls-1" d="M180,391.06c11.46-11.43,22.9-21.16,23-21.25a3,3,0,0,0-3.83-4.52c-.11.1-11.71,10-23.34,21.56-16.21,16.17-24.43,27.48-25.13,34.56-1.5,15.36,3.17,44.69,3.36,45.93a3,3,0,0,0,2.92,2.49l.48,0a3,3,0,0,0,2.45-3.4c0-.29-4.74-29.81-3.31-44.41C156.91,418.85,160.36,410.66,180,391.06Z"/><path class="cls-1" d="M379.74,451.73a3,3,0,0,0,5.92.23,18,18,0,0,1,1-1.91c2.66-4.55,7.62-13,1.65-25.59-7.17-15.09-51.3-60.4-53.18-62.32a3,3,0,1,0-4.24,4.14c.46.46,45.32,46.51,52.07,60.72,4.63,9.74,1,15.95-1.41,20.06C380.55,448.82,379.74,450.2,379.74,451.73Z"/><path class="cls-1" d="M136.56,458.34c-10.47-17.41-6.68-51.56-6.64-51.91a3,3,0,1,0-5.88-.67c-.17,1.48-4.06,36.49,7.44,55.63,11,18.23,36.73,66.08,37,66.56a3,3,0,0,0,2.61,1.55,2.91,2.91,0,0,0,1.4-.35,3,3,0,0,0,1.21-4C173.43,524.66,147.59,476.69,136.56,458.34Z"/><path class="cls-1" d="M410.06,417a3,3,0,0,0-2,3.66c.08.28,8.08,29,.28,42.56-8.39,14.59-54.68,87-55.15,87.71a3,3,0,0,0,.9,4.09,2.89,2.89,0,0,0,1.59.47,3,3,0,0,0,2.5-1.37c1.91-3,46.83-73.24,55.29-88,9-15.73.65-45.86.28-47.13A3,3,0,0,0,410.06,417Z"/><path class="cls-1" d="M582.26,477.48c.09-9.76-6-23.68-18-41.36-9.28-13.65-20.5-26.88-26.79-32.88-8.88-8.48,4.17-39.5,34.07-81,7.15-9.91,9.07-19.24,5.71-27.72-5.74-14.5-25.73-21.49-33.47-23.09-2.86-3.32-3.48-23.53-3.85-35.68s-.73-23.63-2.33-30.81c-3.23-14.53-16.45-13.74-24.36-13.26a37,37,0,0,1-5.51.08,35.18,35.18,0,0,1,1.56-4.83c3.21-8.68,8.59-23.21-1.61-45.06-3.68-7.9-7-12-10.88-13.34a8.79,8.79,0,0,0-6.75.52c-.65-2.15-1.6-7-2.78-17.58C485.14,92,469.58,74,442.31,59.66A207.59,207.59,0,0,0,403.7,44.27c-2.35-3.34-4.88-6.67-7.61-9.92C378.16,13,357,1.51,333.25.28c-50.13-2.6-86,13.33-95.63,18.15-4.77-3.39-16.46-7.77-38.51,5.12C176.52,36.75,155.44,58.31,148.27,66a50.07,50.07,0,0,0-9.39-5.6c-10.11-4.52-19.3-3.83-26.59,2C98.9,73.12,98.05,99.59,98.22,109.46c-9.73,1.44-35.17,6.91-40.62,25.07-6,20.05-8,101.36-8.07,104.77,0,.12-.48,12-8.25,18.94-4.22,3.76-10,5.36-17.12,4.76-4.81-.4-11.4-1-12.42,3.89-.9,4.31,3.31,7.25,19.58,13.71,4.18,1.66,8.4,3.23,11.69,4.42-9.24,9.27-27.13,31.51-19,58.34,8.36,27.6,9.41,52.65,2.5,59.57-.78.78-3.15,3.15-9.44,1.26a4,4,0,0,0-2-.08c-.46.11-11.44,2.65-14.38,13-3.23,11.34,5,26.68,24.34,45.59,15,14.61,24.8,19.58,31,20.69-2.85,8-6.08,21.77-.19,33.55A91.82,91.82,0,0,0,86.17,551c18.29,12.46,40.78,18.76,67,18.76q3.87,0,7.86-.18h0c3.3,20.51,8.25,52,8.32,52.41a3.93,3.93,0,0,0,3.89,3.33,4.3,4.3,0,0,0,.62,0,4,4,0,0,0,3.29-4.52c-.31-1.95-6-38.41-9.21-57.9h0c20.91,21,47.71,38.41,82,49a80.73,80.73,0,0,0,23.73,3.32c31.62,0,70.78-15.07,109.57-42.87,23.06-16.52,44-36.47,58.92-56.16.55-.72,1.08-1.44,1.61-2.15h0c-6.53,56.71-9.84,85.86-9.84,86.67a3.95,3.95,0,0,0,7.89.2c.16-1.92,3.46-30.81,6.68-58.85,12.68,17.73,43.56,37.5,52.24,38.36a8.51,8.51,0,0,0,.88,0c13.12,0,35.93-27.56,42.73-45,5.08-13.08-5.37-23.57-14.37-29.79,14.12-1.93,36.63-6.48,47.58-16.54C580.64,486.25,582.21,482.36,582.26,477.48Zm-424,75.71c.26,1.42.77,4.49,1.44,8.57h0c-27.43,1.12-50.68-4.68-69.12-17.25A83.7,83.7,0,0,1,62.94,513.4c-6.89-13.79,2.84-32.78,2.93-33A3.94,3.94,0,0,0,60,475.49c-.66.22-8.36,2.08-29.41-18.45C8.12,435.16,7,424,8.27,419.32s5.81-6.6,7.69-7.25c8.25,2.11,13.31-.73,16.14-3.56,5.24-5.25,7.51-15,6.75-29.05-.61-11.26-3.2-24.89-7.29-38.39C27.84,328.78,30.22,316,38.63,303A77.26,77.26,0,0,1,53,286.57a4,4,0,0,0-1.19-6.82c-7.91-2.71-16.62-6-23.11-8.76a27.89,27.89,0,0,0,17.85-6.85C56.8,255,57.4,240.19,57.42,239.53c0-.84,2-83.69,7.75-102.73,5.08-17,37.14-19.91,37.46-19.93a4,4,0,0,0,3.61-4.2c-.62-9.33.16-35.44,11-44.09,12-9.57,28.59,5.59,28.76,5.74a4,4,0,0,0,5.64-.27c.25-.29,25.3-28.39,51.47-43.69,18.43-10.77,28.18-7.87,30.81-4.8A3.75,3.75,0,0,0,239,26.62c.38-.21,38.58-21.31,93.85-18.45C363,9.73,383.76,29.25,397.75,49.49a3.56,3.56,0,0,0,.59.86l0,0c9.05,13.28,15.22,26.76,19.25,35.59.87,1.9,1.63,3.57,2.3,5,5.62,11.73,3,28.87,1.12,37.49C393,109.53,350.12,92,291.46,98.68l-10.38,1.16c-72,8.08-146.42,16.43-156.38,70.71l0,.22c-.1.79-9.92,79.35-13.83,106.67-.57,4-1.44,9.18-2.44,15.14-5.8,34.43-16.59,98.51-4.61,148.16,8.61,35.7,24.65,77.31,54.46,111.73h0A4.2,4.2,0,0,0,158.3,553.19Zm220.38,12.69c-21.94,15.73-44.85,27.7-66.26,34.63-23.08,7.47-43.87,8.78-60.13,3.79C162.23,576.66,126,499.09,111.47,438.89c-11.61-48.08-1-111.13,4.71-145,1-6,1.89-11.21,2.48-15.34,3.85-26.9,13.4-103.23,13.83-106.69,4-21.75,20.07-36.64,50.45-46.86,27.69-9.31,63.95-13.38,99-17.31l10.39-1.17c59.39-6.76,101.87,12.26,128.5,31.38l.65.46A165.22,165.22,0,0,1,447.82,162c11.83,13.31,3.2,61.5-1.13,78.94a3.91,3.91,0,0,0-.09,1.36c.15,1.48,15.27,148.26,13.32,214.43-.35,11.71-5.19,25.23-13.63,39.35C432.3,519.5,408.41,544.58,378.68,565.88Zm193.58-82.65C558,496.32,517.59,499,517.19,499a4,4,0,0,0-1.34,7.56c.26.11,26.56,12.12,21.18,25.95-7.23,18.6-28.52,40-35.19,40l-.27,0C496,572,465,553.06,453.92,535.89c-2-3.08-4.14-7.42-3.08-10.62a3.88,3.88,0,0,0-.07-2.67c1-8.91,2-17,2.65-23,9.09-15.33,14-29.82,14.39-42.59.13-4.46.19-9.28.18-14.4h0c16.14-.86,25.68-11.5,27-30.35.3-4.25,4.58-17.88,8.36-29.9,2.74-8.68,5.31-16.88,6.4-21.52.5-2.13,1.68-5.39,3.06-9.17,5.52-15.1,14.74-40.39-2.09-48.29-16.09-7.55-31.48,5.32-37.36,13.19a3,3,0,0,0,4.74,3.55c.14-.19,14.36-18.77,30.1-11.38,11.93,5.6,4.18,26.84-.95,40.9a100.34,100.34,0,0,0-3.27,9.86c-1,4.42-3.58,12.51-6.27,21.08-4.07,12.94-8.28,26.32-8.62,31.27-1.09,15.69-8.22,24-21.14,24.81-.81-69.5-12.41-184.51-13.42-194.44a301.41,301.41,0,0,0,6-34.43c2.84-25.58.56-42.74-6.78-51A172.63,172.63,0,0,0,428,133.34c2-7.75,6.58-30.06-1-45.83-.65-1.35-1.39-3-2.24-4.83a275.6,275.6,0,0,0-14.35-28c20.57,7,65.48,25.82,69,57.72,2.1,18.91,3.64,22.9,6.9,24.67,2.64,1.42,5.08.18,6.39-.48.88-.44,1.29-.62,1.5-.54.4.14,2.59,1.23,6.32,9.21,8.8,18.87,4.32,31,1.35,39-1.68,4.54-3,8.12-1.31,11.51,2.26,4.52,7.79,4.18,13.15,3.86,9-.54,14.53-.33,16.18,7.09,1.43,6.45,1.79,18.09,2.13,29.34.82,26.47,1.68,41.52,9.86,43.11,7.34,1.43,23.84,7.78,28,18.33,2.3,5.81.7,12.61-4.77,20.2-9.44,13.08-22.4,32.39-30.53,50.06-9.4,20.43-10.25,33.91-2.6,41.21,12.36,11.81,42.49,50.42,42.31,68.47C574.34,480.05,573.65,482,572.26,483.23Z"/><path class="cls-1" d="M239.79,291.81a3,3,0,0,0-1.62-3.86,165.24,165.24,0,0,0-35.28-9.13c-34-5.05-56.7,2.25-69.77,9.26a3,3,0,0,0,2.8,5.22,88.8,88.8,0,0,1,34.48-9.75,54.63,54.63,0,0,0-24.78,18,3,3,0,0,0,2.4,4.69,2.73,2.73,0,0,0,.41,0c27.07-3.84,77.13,0,77.63,0a3,3,0,0,0,2.55-4.79,59.1,59.1,0,0,0-21.94-15.94h0a160.22,160.22,0,0,1,29.26,7.94A3,3,0,0,0,239.79,291.81Zm-84.25,7.65a47.36,47.36,0,0,1,19.38-11.08,10.81,10.81,0,0,0-1.38,2.41s-1.3,4.47,1.46,7.8h0C168.27,298.68,161.61,298.94,155.54,299.46Zm63,.32c-5.92-.36-14.61-.81-24.27-1h0c3.17-3.51,2.49-8.79-1.09-11A54,54,0,0,1,218.55,299.78Z"/><path class="cls-1" d="M414.65,295.14a3,3,0,0,0,1.45-5.55c-29.65-16.59-56.39-16.11-73.59-12.79-18.69,3.61-30.26,11.1-30.74,11.42a3,3,0,1,0,3.25,4.95c.44-.29,44.5-28.45,98.18,1.59A3,3,0,0,0,414.65,295.14Z"/><path class="cls-1" d="M166.23,369.77a2.21,2.21,0,0,0,1.76-.87c7.11-9.28,13.88-10.45,14-10.48a2.22,2.22,0,0,0-.6-4.4c-.35,0-8.6,1.25-17,12.18a2.22,2.22,0,0,0,1.77,3.57Z"/></g></g></svg>